<svg width="158" height="45" viewBox="0 0 158 45" fill="none" xmlns="http://www.w3.org/2000/svg">
<g clip-path="url(#clip0_35_1387)">
<path d="M40.8899 21.3893C40.6937 21.0746 40.533 20.7391 40.4106 20.3891C40.0235 19.2874 38.5031 15.4394 35.2256 12.2728C31.1722 8.35473 25.9817 6.86667 19.802 7.85032C13.6223 8.83397 9.1432 11.8573 6.50545 16.8401C4.37211 20.8668 4.12029 24.9942 4.09197 26.1635C4.08352 26.5349 4.0347 26.9043 3.94639 27.2652C2.86516 31.6066 3.63949 35.3705 6.18674 38.1475C9.01965 41.2354 13.8757 42.9367 19.8626 42.9359C20.74 42.9359 21.6355 42.8989 22.5444 42.8242C23.4533 42.7494 24.3756 42.6385 25.3057 42.4905C33.5762 41.1756 39.8637 37.4149 42.134 32.4313C43.6952 28.9988 43.2648 25.1814 40.8899 21.3893Z" fill="#00004F"/>
<path d="M42.6408 20.2923C42.526 20.107 42.4318 19.9096 42.3599 19.7037C41.8138 18.1511 40.166 14.174 36.661 10.7871C34.6316 8.82533 32.3031 7.38763 29.7456 6.51257C26.9308 5.55331 23.8256 5.27238 20.4977 5.66584V5.6446L19.4865 5.80198H19.4786L18.4556 5.96566V5.98533C15.1687 6.63926 12.3043 7.87394 9.93014 9.65553C7.76532 11.2821 5.99554 13.3714 4.67666 15.8651C2.39852 20.1798 2.06487 24.4732 2.02788 26.1163C2.02379 26.3347 1.99528 26.5519 1.9429 26.764C0.683823 31.8097 1.62813 36.2282 4.66564 39.5412C7.89201 43.0626 13.2919 45.0016 19.8642 45C21.7961 44.9943 23.7245 44.8365 25.6316 44.5279C34.5891 43.1059 41.4628 38.9022 44.0172 33.2867C45.8774 29.1948 45.4053 24.6999 42.6408 20.2923ZM42.1356 32.4298C39.8693 37.4133 33.5779 41.174 25.3074 42.489C24.3772 42.6369 23.4568 42.7481 22.546 42.8226C21.6372 42.9013 20.7416 42.9344 19.8642 42.9344C13.8773 42.9344 9.02046 41.2338 6.18833 38.146C3.64107 35.3681 2.86674 31.6051 3.94797 27.2637C4.03629 26.9028 4.0851 26.5334 4.09355 26.162C4.1203 24.9926 4.37212 20.8652 6.50546 16.8377C9.14322 11.8573 13.6137 8.83241 19.7997 7.85033C25.9857 6.86826 31.1723 8.35475 35.2233 12.2728C38.5009 15.4394 40.0235 19.2851 40.4084 20.3891C40.5307 20.7392 40.6915 21.0746 40.8876 21.3893C43.2649 25.1815 43.6953 28.9988 42.1356 32.4298Z" fill="#00004F"/>
<path d="M5.22436 6.68335C5.19604 6.68335 5.16692 6.68335 5.1378 6.68335C4.56138 6.68621 4.00238 6.88123 3.54928 7.23756C3.09618 7.59388 2.77486 8.09115 2.63619 8.65065C1.26223 13.897 2.65429 19.038 3.586 21.5963C4.81831 16.8283 7.1531 13.6901 8.99607 11.8385C10.0418 10.7789 11.2186 9.85733 12.4979 9.09605C9.52173 7.2098 6.93119 6.73607 5.22436 6.68335Z" fill="#00004F"/>
<path d="M14.4793 7.93135C10.7572 5.31248 7.42692 4.68452 5.28965 4.61842C4.23086 4.58401 3.19215 4.91271 2.34591 5.54996C1.49967 6.18721 0.896807 7.0947 0.637378 8.12178C-1.45426 16.1161 2.25922 23.8436 2.41818 24.1655C2.5561 24.4472 2.77946 24.6781 3.05639 24.8254C3.33332 24.9726 3.64968 25.0286 3.96034 24.9855C4.271 24.9423 4.56008 24.8021 4.78636 24.5849C5.01263 24.3677 5.16454 24.0846 5.2204 23.776C6.18044 18.4981 8.60416 15.1608 10.4605 13.2911C12.4199 11.3238 14.1968 10.5219 14.2078 10.5164C14.4514 10.4122 14.6628 10.2449 14.8201 10.0317C14.9775 9.81845 15.075 9.5671 15.1027 9.30359C15.1303 9.04007 15.0871 8.77395 14.9776 8.53271C14.868 8.29147 14.696 8.08387 14.4793 7.93135V7.93135ZM5.13777 6.68093C5.16689 6.68093 5.19601 6.68093 5.22433 6.68093C6.93116 6.73366 9.52485 7.20738 12.4978 9.08891C11.2186 9.8502 10.0418 10.7718 8.99604 11.8313C7.15308 13.6829 4.81828 16.8212 3.58597 21.5891C2.65425 19.0332 1.25904 13.8923 2.63615 8.64587C2.77528 8.08681 3.09679 7.59008 3.54985 7.23421C4.00291 6.87835 4.56167 6.68366 5.13777 6.68093V6.68093Z" fill="#00004F"/>
<path d="M36.3635 3.28382C36.0491 2.78412 35.5737 2.40651 35.0158 2.21325C34.4579 2.01998 33.8508 2.02261 33.2946 2.22069C31.6884 2.80065 29.3718 4.055 27.129 6.76751C28.5809 7.09446 29.9849 7.60592 31.3068 8.28941C33.6329 9.48002 36.8247 11.7377 39.4758 15.8879C39.5679 13.1628 39.2956 7.84402 36.3635 3.28382Z" fill="#00004F"/>
<path d="M38.101 2.16715C37.5354 1.27188 36.681 0.596624 35.6793 0.253172C34.6776 -0.0902798 33.5886 -0.0813303 32.5926 0.278539C30.5797 1.00487 27.6075 2.63458 24.8808 6.2788C24.7218 6.49073 24.6222 6.74124 24.5922 7.00449C24.5623 7.26775 24.6031 7.53423 24.7105 7.77646C24.8178 8.01868 24.9879 8.22789 25.203 8.38251C25.4182 8.53713 25.6707 8.63157 25.9345 8.65609C25.9534 8.65609 27.8924 8.86698 30.3656 10.1308C32.7154 11.3324 36.0511 13.7545 38.6 18.4721C38.7274 18.7086 38.9165 18.9062 39.1472 19.044C39.3779 19.1817 39.6415 19.2544 39.9102 19.2543C39.9983 19.2545 40.0863 19.2466 40.173 19.2307C40.4822 19.1759 40.766 19.0245 40.9838 18.7983C41.2015 18.5721 41.3419 18.2827 41.3849 17.9716C41.4352 17.612 42.5676 9.11329 38.101 2.16715ZM39.4758 15.8855C36.8278 11.7353 33.6329 9.47763 31.3068 8.28702C29.9847 7.60434 28.5808 7.09368 27.129 6.76748C29.3718 4.05733 31.6885 2.80298 33.2946 2.22302C33.8508 2.02494 34.4579 2.02232 35.0158 2.21558C35.5737 2.40884 36.049 2.78645 36.3635 3.28615C39.2956 7.84399 39.5679 13.1628 39.4758 15.8855Z" fill="#00004F"/>
<path d="M39.9087 17.7616C39.9087 17.7616 41.0678 9.53434 36.8475 2.9675C36.4605 2.36008 35.8791 1.90177 35.1981 1.66738C34.5171 1.43299 33.7767 1.43637 33.0979 1.67695C31.2407 2.3474 28.5652 3.84098 26.0754 7.16808C26.0754 7.16808 34.6001 7.93375 39.9087 17.7616Z" fill="#007AFF"/>
<g opacity="0.7">
<path opacity="0.7" d="M36.2487 3.58755C35.9093 2.95188 35.3643 2.45011 34.7028 2.16425C34.0413 1.87838 33.3024 1.82531 32.6068 2.01371C32.2747 2.10578 31.9159 2.22146 31.5358 2.36547C32.0404 2.10069 32.5622 1.87039 33.0979 1.67612C33.7771 1.43584 34.5177 1.43295 35.1987 1.66792C35.8798 1.90289 36.461 2.36184 36.8475 2.96982C41.0678 9.53352 39.9087 17.7639 39.9087 17.7639C39.4984 16.9996 39.0479 16.2575 38.5591 15.5409C38.7401 12.5537 38.5441 7.83141 36.2487 3.58755Z" fill="white"/>
</g>
<path d="M39.9086 18.2187C39.8267 18.2188 39.7463 18.197 39.6757 18.1555C39.6051 18.114 39.547 18.0543 39.5073 17.9826C36.8318 13.025 33.3142 10.4778 30.8347 9.21006C28.1426 7.83452 26.0549 7.62835 26.0345 7.62599C25.9538 7.61858 25.8766 7.58981 25.8107 7.54264C25.7449 7.49547 25.6928 7.4316 25.6599 7.35761C25.6269 7.28362 25.6143 7.20219 25.6233 7.12169C25.6323 7.0412 25.6626 6.96456 25.711 6.89966C28.2819 3.46082 31.0621 1.93026 32.9436 1.25194C33.7196 0.972762 34.5676 0.966917 35.3474 1.23537C36.1271 1.50383 36.7919 2.0305 37.2315 2.7282C41.495 9.358 40.4091 17.4861 40.3611 17.8292C40.3477 17.9242 40.3046 18.0125 40.2381 18.0816C40.1715 18.1507 40.0849 18.197 39.9905 18.214C39.9634 18.2183 39.936 18.2199 39.9086 18.2187V18.2187ZM26.9079 6.84064C27.7979 7.01849 29.3584 7.43477 31.2077 8.37356C33.5912 9.58463 36.8837 11.9147 39.5687 16.264C39.6812 13.6514 39.5089 7.95413 36.4643 3.21767C36.1353 2.6945 35.6376 2.29925 35.0536 2.09722C34.4695 1.89518 33.834 1.89847 33.2521 2.10653C31.6011 2.70223 29.2057 4.0038 26.9079 6.84064Z" fill="#00004F"/>
<path d="M37.6935 15.4857C37.6935 15.4857 38.4985 9.76955 35.5688 5.20856C35.3002 4.78587 34.8962 4.46681 34.4228 4.30356C33.9493 4.14032 33.4345 4.14255 32.9625 4.3099C31.6712 4.77576 29.8148 5.81371 28.0836 8.12567C28.0805 8.12567 34.0036 8.65606 37.6935 15.4857Z" fill="#FF699F"/>
<g opacity="0.3">
<path opacity="0.3" d="M34.9306 7.02405C34.6622 6.60141 34.2583 6.28238 33.785 6.11913C33.3117 5.95588 32.797 5.95809 32.3251 6.12538C31.3965 6.45982 30.1737 7.09093 28.9169 8.27918C28.6418 8.20951 28.3624 8.15825 28.0804 8.12573C29.8117 5.81376 31.668 4.77582 32.9593 4.30996C33.4318 4.14181 33.9473 4.13916 34.4214 4.30244C34.8955 4.46572 35.3001 4.78524 35.5688 5.20862C38.5008 9.77276 37.6935 15.4858 37.6935 15.4858C37.513 15.1521 37.3278 14.8337 37.1379 14.5305C37.0372 12.4609 36.5634 9.56343 34.9306 7.02405Z" fill="#000072"/>
</g>
<path d="M37.6934 15.8116C37.6347 15.8115 37.5771 15.7957 37.5267 15.7656C37.4763 15.7356 37.4349 15.6924 37.407 15.6408C33.8509 9.059 28.1087 8.45465 28.0513 8.44992C27.9936 8.44465 27.9384 8.42409 27.8913 8.39036C27.8442 8.35664 27.8069 8.31097 27.7834 8.25806C27.7598 8.20515 27.7508 8.14691 27.7572 8.08934C27.7636 8.03178 27.7853 7.97697 27.8199 7.93056C29.6086 5.53911 31.5421 4.47519 32.8499 4.00304C33.3911 3.80848 33.9824 3.80446 34.5262 3.99162C35.0699 4.17878 35.5335 4.54592 35.8402 5.03233C38.8038 9.64211 38.0491 15.293 38.0161 15.5314C38.0064 15.5994 37.9756 15.6626 37.928 15.712C37.8804 15.7614 37.8184 15.7946 37.7509 15.8068C37.7319 15.8099 37.7127 15.8115 37.6934 15.8116V15.8116ZM28.6769 7.88885C30.1909 8.18788 34.375 9.4383 37.4487 14.414C37.5274 12.586 37.3944 8.65531 35.2917 5.38487C35.0642 5.02311 34.72 4.74978 34.3161 4.61C33.9123 4.47022 33.4728 4.47235 33.0703 4.61605C31.9269 5.0284 30.2688 5.92863 28.6769 7.88885Z" fill="#00004F"/>
<path d="M3.7552 23.51C3.7552 23.51 0.101536 16.0484 2.07828 8.49869C2.25717 7.80088 2.66742 7.18436 3.242 6.74985C3.81659 6.31533 4.52154 6.08852 5.24169 6.10646C7.21686 6.16705 10.2245 6.75724 13.6208 9.14869C13.6208 9.14869 5.75398 12.5199 3.7552 23.51Z" fill="#007AFF"/>
<path d="M3.75676 23.9665C3.67143 23.9665 3.58781 23.9426 3.51545 23.8973C3.44309 23.8521 3.38491 23.7875 3.34756 23.7107C3.1949 23.3999 -0.357254 16.0099 1.63837 8.38389C2.07354 6.7227 3.55924 5.59504 5.2582 5.65091C7.25619 5.71229 10.3732 6.30484 13.886 8.77656C13.9521 8.82342 14.0046 8.88705 14.038 8.96091C14.0714 9.03477 14.0845 9.11619 14.076 9.1968C14.0675 9.27741 14.0377 9.35431 13.9897 9.41958C13.9416 9.48486 13.877 9.53615 13.8026 9.5682C13.7845 9.57607 11.8628 10.4196 9.73105 12.5585C7.76375 14.5329 5.21335 18.0488 4.20609 23.588C4.18887 23.6824 4.14235 23.769 4.07315 23.8356C4.00394 23.9021 3.91555 23.9451 3.8205 23.9586C3.79942 23.9624 3.77814 23.965 3.75676 23.9665ZM5.14488 6.56059C4.54088 6.56207 3.95461 6.76493 3.47886 7.13706C3.0031 7.5092 2.66503 8.02936 2.51815 8.61524C1.09461 14.0623 2.69835 19.5322 3.61511 21.9803C4.81989 17.0148 7.22629 13.7767 9.11725 11.8865C10.1903 10.7983 11.4049 9.85942 12.7284 9.09526C9.66416 7.11065 6.98391 6.61646 5.22908 6.56217L5.14488 6.56059Z" fill="#00004F"/>
<path d="M5.15666 20.659C5.15666 20.659 2.61806 15.4748 3.99123 10.23C4.11567 9.74501 4.40082 9.31657 4.80015 9.01457C5.19947 8.71258 5.68938 8.55487 6.18989 8.5672C7.56149 8.60969 9.65233 9.01968 12.0131 10.6809C12.0123 10.6801 6.54557 13.0227 5.15666 20.659Z" fill="#FF699F"/>
<g opacity="0.3">
<path opacity="0.3" d="M5.15745 11.7582C5.28189 11.2732 5.56704 10.8448 5.96637 10.5428C6.36569 10.2408 6.8556 10.0831 7.35611 10.0954C8.34291 10.1261 9.70113 10.3465 11.264 11.0862C11.5044 10.9348 11.7544 10.7992 12.0123 10.6801C9.65156 9.01892 7.56149 8.60894 6.1891 8.56644C5.68862 8.55434 5.19882 8.71224 4.79964 9.01437C4.40046 9.31651 4.11549 9.74503 3.99124 10.23C2.61806 15.4748 5.15666 20.659 5.15666 20.659C5.22539 20.2871 5.30408 19.9269 5.39274 19.5786C4.84111 17.5798 4.39335 14.6784 5.15745 11.7582Z" fill="#000072"/>
</g>
<path d="M5.15668 20.9848C5.09579 20.9849 5.0361 20.9678 4.98447 20.9355C4.93284 20.9032 4.89134 20.857 4.86474 20.8023C4.7585 20.5866 2.28836 15.4512 3.67649 10.1466C3.81792 9.58938 4.14494 9.09698 4.60368 8.75053C5.06243 8.40408 5.62551 8.22424 6.20014 8.24066C7.58905 8.28394 9.75859 8.6955 12.1996 10.4141C12.247 10.4476 12.2846 10.493 12.3085 10.5458C12.3325 10.5987 12.3419 10.6569 12.3358 10.7146C12.3297 10.7723 12.3083 10.8272 12.2739 10.8739C12.2394 10.9205 12.1931 10.9571 12.1398 10.9799C12.0879 11.0027 6.8163 13.3572 5.47696 20.7173C5.46482 20.7848 5.43164 20.8467 5.38217 20.8942C5.3327 20.9417 5.26947 20.9723 5.20154 20.9817C5.18669 20.9839 5.1717 20.985 5.15668 20.9848ZM6.12145 8.89223C5.7046 8.89353 5.30002 9.0334 4.97137 9.28982C4.64272 9.54625 4.40866 9.90467 4.30603 10.3087C3.32159 14.0702 4.41777 17.8474 5.05596 19.5613C6.43464 13.8782 10.0246 11.3907 11.371 10.6376C9.25024 9.26837 7.39468 8.92606 6.17732 8.88908L6.12145 8.89223Z" fill="#00004F"/>
<path d="M25.3978 43.0595C39.3759 40.8364 47.4465 31.8805 41.8342 21.8496C41.691 21.5946 41.5399 21.3397 41.3794 21.0824C41.2057 20.8038 41.0635 20.5069 40.9552 20.1971C40.0345 17.579 34.7582 4.88676 19.7084 7.27978C4.65858 9.67281 3.57657 23.3762 3.51676 26.1501C3.50929 26.4783 3.46601 26.8047 3.3877 27.1235C0.439118 38.9604 11.0641 45.3384 25.3978 43.0595Z" fill="#007AFF"/>
<path d="M3.1933 27.9939C3.1933 27.9939 5.33687 27.4564 7.57801 30.3483C9.33914 32.6178 13.4366 31.982 15.4008 30.1044C17.3649 28.2268 19.9649 26.9567 22.7608 26.5129C25.5568 26.0691 28.4353 26.468 30.8834 27.6421C33.3315 28.8162 37.4259 28.152 38.3954 25.4482C39.6292 22.0038 41.8342 21.8496 41.8342 21.8496C47.4465 31.8805 39.3759 40.8364 25.3978 43.0594C11.4198 45.2825 0.968677 39.2673 3.1933 27.9939Z" fill="white"/>
<g opacity="0.3">
<path opacity="0.3" d="M3.14295 28.2654C2.92812 37.551 12.4994 42.3174 24.9642 40.3352C37.429 38.3529 45.0425 30.8567 41.9719 22.1053C47.3065 32.0316 39.2571 40.8553 25.3978 43.0595C11.5386 45.2636 1.13788 39.3672 3.14295 28.2654Z" fill="#000072"/>
</g>
<g opacity="0.3">
<path opacity="0.3" d="M15.4772 30.6639C15.4772 30.6639 16.5364 32.3574 18.7665 31.853C19.6321 31.6578 20.2246 31.3383 20.6338 30.9937C20.6694 30.9633 20.697 30.9248 20.7143 30.8814C20.7317 30.838 20.7382 30.791 20.7333 30.7445C20.7284 30.6981 20.7123 30.6535 20.6863 30.6146C20.6604 30.5758 20.6253 30.5438 20.5843 30.5215C19.5542 29.984 18.8578 29.1208 18.9892 28.2394C19.2253 26.6459 22.7137 26.1793 22.7137 26.1793C22.7137 26.1793 26.1722 25.5419 26.893 26.9827C27.292 27.7799 26.893 28.8194 26.0793 29.6496C26.0459 29.6837 26.0214 29.7256 26.0081 29.7716C25.9947 29.8175 25.993 29.866 26.0029 29.9127C26.0129 29.9595 26.0343 30.003 26.0652 30.0395C26.0961 30.076 26.1356 30.1042 26.1801 30.1218C26.675 30.3193 27.3376 30.4365 28.2143 30.3578C30.4908 30.1454 30.9685 28.2072 30.9685 28.2072C30.9685 28.2072 32.2472 29.8951 30.9795 31.6736C30.8705 31.8237 30.7966 31.9963 30.7631 32.1788C30.5365 33.4843 29.3309 38.892 24.8376 39.6065C20.3443 40.321 17.5192 35.5539 16.8999 34.3829C16.8116 34.2199 16.6879 34.0788 16.5379 33.9698C14.7847 32.6659 15.4772 30.6639 15.4772 30.6639Z" fill="#000072"/>
</g>
<g opacity="0.7">
<path opacity="0.7" d="M3.38771 27.1235C3.46601 26.8047 3.50929 26.4783 3.51676 26.1501C3.57893 23.3762 4.65858 9.67281 19.7084 7.27978C34.7582 4.88676 40.0345 17.579 40.9552 20.1971C41.0635 20.5069 41.2057 20.8038 41.3794 21.0824C41.5368 21.3397 41.6942 21.5946 41.8342 21.8496C42.8391 23.6454 43.4026 25.4065 43.5749 27.1007C43.2635 25.7097 42.7458 24.3732 42.0388 23.1354C41.8956 22.8805 41.744 22.6247 41.584 22.3682C41.4104 22.0896 41.2681 21.7927 41.1598 21.4829C40.3902 19.2945 36.5745 10.0671 26.5507 8.49872C26.5507 8.49872 26.5507 8.50423 26.5507 8.50659C26.5436 8.97874 25.4915 9.34388 24.2017 9.3242C22.912 9.30453 21.8724 8.90556 21.8803 8.4342C21.8811 8.40008 21.8875 8.36633 21.8992 8.33426C21.2563 8.38305 20.5945 8.45938 19.9122 8.57033C4.86318 10.9594 3.78353 24.6621 3.72057 27.436C3.71363 27.7636 3.67061 28.0895 3.59231 28.4078C3.13432 30.2453 3.00448 31.9489 3.16422 33.5141C2.75424 31.6184 2.80067 29.4796 3.38771 27.1235Z" fill="white"/>
</g>
<path d="M27.5422 23.7099L27.6107 23.5864C27.6311 23.551 27.6516 23.5148 27.6728 23.4817C27.7161 23.414 27.7578 23.3479 27.8027 23.2842C27.8924 23.1575 27.9837 23.0332 28.0828 22.9159C28.6724 22.2033 29.4129 21.6305 30.2508 21.239C30.8056 20.9758 31.4001 20.8061 32.0103 20.7369C32.6036 20.6716 33.2038 20.7131 33.7825 20.8597C33.8418 20.8748 33.8939 20.9101 33.93 20.9595C33.9661 21.0089 33.9837 21.0694 33.98 21.1304C33.9763 21.1915 33.9514 21.2493 33.9096 21.294C33.8678 21.3387 33.8117 21.3674 33.751 21.3751H33.7423C33.2288 21.4327 32.7244 21.5541 32.2409 21.7363C32.0098 21.8265 31.7847 21.9316 31.5673 22.0511C31.354 22.1698 31.148 22.3012 30.9503 22.4445C30.5608 22.7371 30.2003 23.0665 29.8738 23.4282C29.7086 23.6076 29.552 23.7941 29.4017 23.983C29.3277 24.0782 29.2514 24.1726 29.1821 24.2686L28.9886 24.5307L28.9351 24.6031C28.8095 24.7711 28.625 24.8854 28.4186 24.9228C28.2123 24.9603 27.9994 24.9182 27.8228 24.805C27.6462 24.6917 27.5191 24.5158 27.4671 24.3126C27.415 24.1095 27.4418 23.8941 27.5422 23.7099V23.7099Z" fill="#00004F"/>
<path d="M16.2412 26.5601L15.976 26.3713C15.88 26.3012 15.7793 26.2351 15.6786 26.1674C15.4756 26.0352 15.2694 25.9062 15.0569 25.7874C14.6344 25.5447 14.1896 25.3431 13.7286 25.1854C13.4963 25.1102 13.2598 25.0484 13.0204 25.0004C12.7765 24.9548 12.5299 24.9251 12.2822 24.9115C11.7661 24.8881 11.249 24.929 10.743 25.0335H10.7352C10.6745 25.046 10.6115 25.0368 10.557 25.0074C10.5025 24.978 10.4602 24.9303 10.4374 24.8728C10.4147 24.8152 10.4129 24.7515 10.4326 24.6928C10.4522 24.6341 10.4919 24.5842 10.5447 24.5519C11.0493 24.2334 11.6068 24.0079 12.191 23.8862C12.7926 23.7622 13.4106 23.7391 14.0198 23.8177C14.9376 23.9306 15.819 24.2453 16.6009 24.7392C16.7315 24.8179 16.8566 24.9092 16.9817 25.0028C17.0439 25.0492 17.1045 25.0988 17.1659 25.15C17.1965 25.1744 17.2272 25.2027 17.2579 25.2286L17.3618 25.3247C17.5168 25.4679 17.6113 25.6648 17.6262 25.8753C17.641 26.0858 17.5751 26.2941 17.4418 26.4577C17.3085 26.6212 17.1179 26.7279 16.9087 26.7558C16.6995 26.7838 16.4876 26.731 16.316 26.6081L16.2412 26.5601Z" fill="#00004F"/>
<path d="M23.4014 30.5025C21.2641 30.8417 18.916 29.3804 19.1426 27.8703C19.3692 26.3602 22.6719 25.9179 22.6719 25.9179C22.6719 25.9179 25.9502 25.3136 26.6333 26.6789C27.3163 28.0442 25.5379 30.1626 23.4014 30.5025Z" fill="#00004F"/>
<path d="M23.8035 29.9612C23.8177 29.9809 23.8515 30.0289 23.8822 30.0635C23.9129 30.0981 23.942 30.1422 23.9735 30.1776C24.0364 30.2563 24.1049 30.3271 24.1726 30.4003C24.3101 30.5455 24.4567 30.6816 24.6117 30.808C24.9161 31.059 25.2557 31.264 25.6197 31.4162C25.7994 31.4912 25.9853 31.5502 26.1753 31.5925C26.3655 31.6381 26.5593 31.6676 26.7545 31.6806C27.1544 31.7032 27.5555 31.6709 27.9467 31.5846C28.3477 31.4972 28.7368 31.3622 29.1058 31.1825C29.4661 31.0148 29.7903 30.7785 30.0603 30.4869C30.3217 30.1893 30.5244 29.8448 30.6576 29.4718C30.8064 29.0633 30.9055 28.6385 30.9527 28.2064V28.2064C30.953 28.2039 30.9538 28.2015 30.955 28.1993C30.9562 28.1971 30.9579 28.1952 30.9598 28.1937C30.9618 28.1921 30.9641 28.191 30.9665 28.1904C30.9689 28.1897 30.9714 28.1895 30.9739 28.1899C30.9769 28.1902 30.9797 28.1912 30.9822 28.1928C30.9847 28.1945 30.9867 28.1967 30.9881 28.1993C31.2375 28.6148 31.3123 29.1169 31.2604 29.6118C31.1992 30.1188 30.9978 30.5988 30.6788 30.9976C30.3674 31.3969 29.9815 31.732 29.5425 31.9844C29.1163 32.2285 28.6614 32.4185 28.1882 32.5502C27.2439 32.8193 26.1651 32.8146 25.2145 32.4267C24.7429 32.2399 24.3049 31.9775 23.9176 31.65C23.7263 31.4885 23.5467 31.3136 23.3802 31.1267C23.2967 31.033 23.2173 30.9362 23.1441 30.8347C23.1063 30.7843 23.0693 30.7332 23.0323 30.6773C22.9954 30.6215 22.9639 30.5766 22.9182 30.5003C22.8548 30.3857 22.837 30.2514 22.8682 30.1243C22.8995 29.9971 22.9776 29.8864 23.0868 29.8143C23.1961 29.7422 23.3286 29.7139 23.4578 29.7352C23.587 29.7564 23.7034 29.8256 23.7838 29.929L23.8035 29.9612Z" fill="#00004F"/>
<path d="M23.8657 30.3491C23.8452 30.4357 23.8311 30.4868 23.8114 30.5521C23.7917 30.6175 23.7744 30.6749 23.754 30.7347C23.713 30.8543 23.6682 30.9708 23.6178 31.0857C23.5178 31.3152 23.4013 31.5372 23.2692 31.7498C23.0026 32.182 22.6677 32.5681 22.2777 32.8932C21.4908 33.5566 20.4678 33.8966 19.4881 33.9328C18.9975 33.9546 18.5061 33.9152 18.0252 33.8155C17.5298 33.7113 17.0592 33.5122 16.6394 33.2293C16.2133 32.9479 15.874 32.5533 15.6597 32.0898C15.4575 31.6357 15.3725 31.1353 15.4803 30.6623C15.4809 30.6599 15.4819 30.6576 15.4833 30.6555C15.4848 30.6535 15.4866 30.6518 15.4888 30.6505C15.4909 30.6492 15.4932 30.6483 15.4957 30.6479C15.4982 30.6475 15.5007 30.6476 15.5031 30.6482C15.506 30.6488 15.5086 30.6501 15.5109 30.6518C15.5132 30.6536 15.5151 30.6558 15.5165 30.6584C15.6957 31.0547 15.9216 31.4283 16.1893 31.7711C16.4325 32.0837 16.732 32.3482 17.0722 32.5509C17.4195 32.744 17.8008 32.868 18.1952 32.9161C18.6018 32.9722 19.0136 32.9796 19.422 32.9381C19.8206 32.8991 20.212 32.8053 20.585 32.6595C20.7663 32.5867 20.941 32.4988 21.1076 32.3967C21.2747 32.2975 21.4327 32.1838 21.5797 32.0567C21.8779 31.7994 22.1369 31.4998 22.3485 31.1675C22.4569 30.9994 22.5542 30.8243 22.6397 30.6434C22.6814 30.5529 22.7239 30.4624 22.7593 30.3704C22.7782 30.3247 22.7955 30.2783 22.8112 30.2334C22.827 30.1886 22.8443 30.1359 22.8514 30.113L22.8624 30.0768C22.9041 29.9503 22.9929 29.8445 23.1102 29.7813C23.2276 29.7181 23.3648 29.7024 23.4934 29.7373C23.6221 29.7722 23.7325 29.855 23.8019 29.9689C23.8713 30.0827 23.8944 30.2188 23.8665 30.3491H23.8657Z" fill="#00004F"/>
<path d="M17.8859 33.3197C17.8859 33.3197 20.2239 39.8968 24.7793 39.1721C26.7584 38.8573 27.9121 37.3621 28.5841 35.7749C29.4607 33.7038 29.5182 31.4697 29.5182 31.4697C29.5182 31.4697 26.2178 33.5896 23.4014 30.5026C21.6805 34.3097 17.8859 33.3197 17.8859 33.3197Z" fill="#00004F"/>
<path d="M23.9774 34.1255C27.4053 33.5802 28.5841 35.7781 28.5841 35.7781C27.912 37.3676 26.7584 38.8604 24.7793 39.1752C22.8002 39.4899 21.2382 38.4284 20.1089 37.1292C20.1089 37.1229 20.5488 34.6709 23.9774 34.1255Z" fill="#FF4893"/>
<g opacity="0.3">
<path opacity="0.3" d="M24.4543 37.1268C25.9683 36.8861 27.07 36.0409 27.857 34.962C28.1457 35.1872 28.3914 35.4626 28.5825 35.7749C27.9105 37.3645 26.7568 38.8573 24.7777 39.1721C22.7986 39.4868 21.2366 38.4253 20.1074 37.1261C20.1923 36.7697 20.3405 36.4315 20.5449 36.1275C21.634 36.9065 22.9379 37.3676 24.4543 37.1268Z" fill="#000072"/>
</g>
<path d="M24.0679 39.6851C19.7163 39.6851 17.5507 33.7392 17.4578 33.4724C17.4299 33.3943 17.4238 33.3101 17.4402 33.2288C17.4566 33.1475 17.4949 33.0723 17.551 33.0112C17.607 32.95 17.6786 32.9053 17.7582 32.8819C17.8377 32.8585 17.9221 32.8573 18.0024 32.8783C18.1416 32.9137 21.4514 33.7148 22.9883 30.3145C23.0193 30.2456 23.067 30.1855 23.127 30.1396C23.187 30.0938 23.2575 30.0635 23.3321 30.0517C23.4068 30.0398 23.4832 30.0467 23.5545 30.0717C23.6257 30.0967 23.6897 30.139 23.7406 30.1949C26.2587 32.9491 29.1538 31.1628 29.2758 31.0849C29.3454 31.0407 29.4256 31.0161 29.5081 31.0138C29.5905 31.0116 29.672 31.0317 29.7439 31.0721C29.8158 31.1124 29.8755 31.1715 29.9165 31.243C29.9575 31.3146 29.9784 31.3959 29.9769 31.4783C29.969 31.7782 29.729 38.8439 24.8533 39.619C24.5936 39.6617 24.331 39.6838 24.0679 39.6851V39.6851ZM18.6106 33.8729C19.3456 35.4822 21.4333 39.2405 24.7077 38.7219C27.9821 38.2034 28.7997 33.9792 29.0003 32.2212C27.8546 32.6682 25.604 33.149 23.5226 31.2667C22.1282 33.7014 19.839 33.943 18.6106 33.8729Z" fill="#00004F"/>
<path d="M22.8566 27.4078C23.6261 27.2854 24.2275 27.0447 24.1997 26.87C24.172 26.6953 23.5256 26.6528 22.756 26.7751C21.9864 26.8974 21.3851 27.1382 21.4128 27.3129C21.4406 27.4876 22.087 27.5301 22.8566 27.4078Z" fill="white"/>
<path d="M28.3843 20.1838C29.1379 19.4445 29.3963 18.4859 28.9614 18.0425C28.5264 17.5992 27.563 17.8391 26.8094 18.5783C26.0558 19.3176 25.7975 20.2763 26.2324 20.7196C26.6673 21.163 27.6308 20.9231 28.3843 20.1838Z" fill="white"/>
<path d="M17.6758 22.081C17.3996 22.6374 16.4089 22.7106 15.4638 22.2384C14.5187 21.7663 13.9749 20.9376 14.2503 20.3813C14.5258 19.8249 15.3882 19.7746 16.3341 20.2444C17.28 20.7141 17.9512 21.5247 17.6758 22.081Z" fill="white"/>
<path d="M19.8658 43.9683C13.6704 43.9683 8.47984 42.1718 5.42817 38.8439C2.63539 35.7985 1.77686 31.7081 2.94622 27.0141C3.01699 26.7281 3.05578 26.4352 3.0619 26.1406C3.12564 23.3463 4.22418 9.28088 19.6384 6.83042L19.71 7.28053L19.6384 6.83042C35.0517 4.37916 40.4595 17.4098 41.3864 20.0507C41.4838 20.3287 41.6113 20.5952 41.7665 20.8455C44.3343 24.9445 44.7875 29.1002 43.0775 32.8609C40.6672 38.1616 34.0846 42.1466 25.4702 43.5143C23.6168 43.8121 21.7429 43.964 19.8658 43.9683V43.9683ZM23.3322 7.43949C22.1428 7.4429 20.9556 7.54026 19.7816 7.73065V7.73065C5.08192 10.0678 4.03375 23.4934 3.97315 26.1611C3.96551 26.523 3.91801 26.883 3.83151 27.2345C2.73926 31.6168 3.52382 35.4184 6.09941 38.2277C9.82783 42.293 17.0163 43.9313 25.327 42.6093C33.6377 41.2873 39.9637 37.5014 42.2458 32.4801C43.8196 29.0105 43.3899 25.1531 40.9922 21.3255C40.8013 21.0182 40.6451 20.6906 40.5263 20.3489C39.7166 18.0464 35.3272 7.43949 23.3322 7.43949Z" fill="#00004F"/>
<path d="M56.3544 37.7439C55.7531 37.7414 55.1645 37.5706 54.6553 37.2507C54.1461 36.9308 53.7367 36.4746 53.4735 35.9339L46.3913 21.8056L46.385 21.793C45.6154 20.1405 46.2701 18.2235 47.8754 17.4209L47.8888 17.4146C48.6622 17.037 49.5537 16.9812 50.3683 17.2594C51.1828 17.5375 51.8539 18.1269 52.2349 18.8987L56.4056 27.24L60.5558 19.1537C60.8276 18.6183 61.242 18.1684 61.7533 17.8536C62.2645 17.5388 62.8528 17.3714 63.4532 17.3697C63.9636 17.3703 64.4666 17.4919 64.9209 17.7246C66.5214 18.5532 67.1596 20.5119 66.3428 22.0912L59.2684 35.941C59.005 36.4805 58.5958 36.9354 58.0872 37.2545C57.5787 37.5735 56.991 37.7438 56.3906 37.7462L56.3544 37.7439Z" fill="white"/>
<path d="M49.3202 18.1149C49.7345 18.1155 50.1404 18.2324 50.4916 18.4522C50.8428 18.672 51.1254 18.9859 51.3072 19.3582L56.3891 29.522L61.4742 19.621C61.6601 19.2554 61.943 18.948 62.2919 18.7323C62.6408 18.5166 63.0423 18.401 63.4525 18.3981C63.7993 18.3985 64.141 18.4822 64.4487 18.6421C65.5402 19.2071 65.9919 20.5244 65.4276 21.6166L58.3509 35.4664C58.1723 35.8351 57.8945 36.1466 57.5486 36.3661C57.2028 36.5856 56.8026 36.7043 56.393 36.709H56.3553C55.9458 36.7042 55.5458 36.5854 55.2001 36.3659C54.8544 36.1464 54.5767 35.8349 54.3982 35.4664L47.3206 21.353C46.7934 20.2238 47.2073 18.9057 48.3365 18.3415C48.643 18.1925 48.9794 18.115 49.3202 18.1149V18.1149ZM49.3202 16.0492C48.6686 16.0503 48.0255 16.198 47.4387 16.4812L47.4253 16.4875L47.4127 16.4938C45.3037 17.5483 44.4405 20.0664 45.4454 22.2265L45.4572 22.2525L45.4706 22.2784L52.5505 36.395C52.899 37.1075 53.4401 37.7082 54.1123 38.1292C54.7846 38.5501 55.5613 38.7745 56.3545 38.777H56.3922C57.1841 38.7746 57.9596 38.551 58.6312 38.1314C59.3028 37.7117 59.8437 37.1128 60.1931 36.4021L67.2643 22.561C67.5251 22.0591 67.6819 21.5099 67.7254 20.946C67.769 20.3822 67.6983 19.8154 67.5177 19.2795C67.1608 18.2091 66.3978 17.3218 65.393 16.8086C64.8931 16.5502 64.3469 16.3935 63.7861 16.3474C63.2252 16.3014 62.6608 16.3669 62.1254 16.5403C61.59 16.7136 61.0943 16.9913 60.6669 17.3573C60.2394 17.7234 59.8888 18.1705 59.6351 18.6728V18.6728L56.4151 24.9453L53.1564 18.4288C52.8024 17.7143 52.2554 17.1132 51.5775 16.6933C50.8995 16.2735 50.1176 16.0517 49.3202 16.0531V16.0492Z" fill="#00004F"/>
<path d="M69.1529 37.8193C67.2761 37.8193 65.7487 36.3092 65.7487 34.4529V19.9224C65.7487 18.0865 67.2761 16.5929 69.1529 16.5929C70.0356 16.594 70.8819 16.9451 71.5061 17.5693C72.1302 18.1934 72.4813 19.0397 72.4824 19.9224V34.4529C72.4824 36.3092 70.9888 37.8193 69.1529 37.8193ZM69.1529 15.7226C67.2761 15.7226 65.7487 14.2275 65.7487 12.3939V12.2051C65.7487 10.3165 67.2439 8.83862 69.1529 8.83862C70.9888 8.83862 72.4824 10.3487 72.4824 12.2051V12.3939C72.4824 14.1983 70.9581 15.7226 69.1529 15.7226Z" fill="white"/>
<path d="M69.1529 9.87187C69.4573 9.87372 69.7583 9.93561 70.0387 10.054C70.3191 10.1724 70.5734 10.3449 70.787 10.5617C71.0006 10.7785 71.1693 11.0354 71.2835 11.3175C71.3976 11.5996 71.455 11.9015 71.4523 12.2059V12.3939C71.4436 13.0002 71.1988 13.5792 70.7701 14.008C70.3414 14.4367 69.7624 14.6814 69.1561 14.6902C67.8388 14.6902 66.7851 13.6357 66.7851 12.3939V12.2059C66.7851 10.8878 67.8388 9.87187 69.1561 9.87187H69.1529ZM69.1561 17.6262C69.7644 17.6285 70.3471 17.8711 70.7772 18.3012C71.2074 18.7314 71.45 19.3141 71.4523 19.9224V34.4529C71.4523 35.7324 70.3986 36.7861 69.1561 36.7861C68.5323 36.7909 67.9322 36.5478 67.4876 36.1103C67.043 35.6728 66.7903 35.0766 66.7851 34.4529V19.9224C66.782 18.6421 67.8325 17.627 69.1529 17.627L69.1561 17.6262ZM69.1529 7.80621C67.9866 7.799 66.8643 8.25132 66.0289 9.06528C65.6104 9.47336 65.2785 9.96156 65.0528 10.5007C64.8272 11.0399 64.7125 11.619 64.7155 12.2035V12.3916C64.7185 13.1556 64.9225 13.9053 65.3071 14.5654C65.6917 15.2256 66.2432 15.7728 66.9063 16.1523C66.5919 16.334 66.3011 16.5539 66.0407 16.807C65.6211 17.2094 65.2877 17.6928 65.0604 18.2279C64.8332 18.763 64.7169 19.3387 64.7187 19.92V34.4529C64.7187 36.879 66.7096 38.8525 69.1561 38.8525C69.7308 38.8521 70.2995 38.7369 70.829 38.5135C71.3585 38.2901 71.8379 37.9631 72.2392 37.5518C73.0593 36.729 73.5195 35.6145 73.5188 34.4529V19.9224C73.5182 19.1596 73.3177 18.4102 72.9374 17.749C72.557 17.0878 72.0099 16.5378 71.3508 16.1539C71.6717 15.9629 71.9675 15.7327 72.2314 15.4684C72.6385 15.0665 72.9619 14.5878 73.1829 14.0601C73.4039 13.5324 73.518 12.9661 73.5188 12.3939V12.2059C73.5188 9.7798 71.5617 7.80542 69.1561 7.80542L69.1529 7.80621Z" fill="#00004F"/>
<path d="M81.1236 37.7068C80.7589 37.7134 80.3942 37.6986 80.0313 37.6627H80.0109H79.9904C78.3772 37.418 77.0182 36.7184 76.0558 35.6317C75.1217 34.5457 74.5213 32.953 74.5213 31.5554V23.1008H73.9358C73.4993 23.1075 73.0659 23.0274 72.6606 22.865C72.2554 22.7026 71.8865 22.4613 71.5754 22.155C71.2644 21.8487 71.0173 21.4836 70.8487 21.0809C70.6801 20.6782 70.5933 20.246 70.5933 19.8095C70.5933 19.3729 70.6801 18.9407 70.8487 18.538C71.0173 18.1354 71.2644 17.7703 71.5754 17.464C71.8865 17.1577 72.2554 16.9163 72.6606 16.7539C73.0659 16.5916 73.4993 16.5114 73.9358 16.5182H74.5213V10.3605C74.5213 9.48752 74.8681 8.65027 75.4854 8.03296C76.1027 7.41565 76.94 7.06885 77.813 7.06885C78.686 7.06885 79.5233 7.41565 80.1406 8.03296C80.7579 8.65027 81.1047 9.48752 81.1047 10.3605V16.5182H81.314C82.1781 16.5315 83.0023 16.8842 83.6086 17.5C84.2149 18.1157 84.5548 18.9453 84.5548 19.8095C84.5548 20.6737 84.2149 21.5032 83.6086 22.119C83.0023 22.7348 82.1781 23.0874 81.314 23.1008H81.1047V30.9259C81.1165 30.9951 81.1244 31.062 81.1306 31.125C82.0024 31.1275 82.8376 31.4753 83.4535 32.0922C84.0694 32.7091 84.4158 33.5449 84.4168 34.4167C84.4213 34.8502 84.3391 35.2803 84.1751 35.6817C84.0111 36.0831 83.7687 36.4477 83.4619 36.7541C83.1552 37.0605 82.7904 37.3027 82.3888 37.4662C81.9873 37.6298 81.5571 37.7116 81.1236 37.7068Z" fill="white"/>
<path d="M77.8114 8.10531C78.4098 8.10718 78.9832 8.34572 79.4063 8.76886C79.8295 9.192 80.068 9.76537 80.0699 10.3638V17.5484H81.3124C81.9042 17.5594 82.468 17.8022 82.8826 18.2247C83.2972 18.6471 83.5295 19.2153 83.5295 19.8072C83.5295 20.3991 83.2972 20.9673 82.8826 21.3898C82.468 21.8122 81.9042 22.055 81.3124 22.0661H80.0699V31.0275C80.1486 31.3281 80.0699 31.7798 80.3335 32.0056C80.4681 32.1402 80.679 32.163 80.8843 32.163C80.963 32.163 81.048 32.163 81.1204 32.163C81.719 32.1647 82.2925 32.4031 82.7158 32.8263C83.1391 33.2495 83.3778 33.8229 83.3797 34.4215C83.3806 34.7177 83.3228 35.0111 83.2097 35.2849C83.0966 35.5587 82.9303 35.8073 82.7205 36.0164C82.5108 36.2255 82.2616 36.391 81.9875 36.5033C81.7134 36.6155 81.4198 36.6724 81.1236 36.6705C80.7971 36.6768 80.4705 36.6642 80.1454 36.6327C78.9029 36.4447 77.6981 35.9174 76.8325 34.9393C76.0794 34.0737 75.553 32.7178 75.553 31.5508V22.0684H73.9343C73.6341 22.074 73.3358 22.0197 73.0568 21.9087C72.7779 21.7977 72.5238 21.6322 72.3095 21.4219C72.0953 21.2116 71.9251 20.9607 71.8089 20.6839C71.6927 20.407 71.6329 20.1098 71.6329 19.8096C71.6329 19.5093 71.6927 19.2121 71.8089 18.9353C71.9251 18.6584 72.0953 18.4075 72.3095 18.1972C72.5238 17.9869 72.7779 17.8214 73.0568 17.7104C73.3358 17.5994 73.6341 17.5451 73.9343 17.5507H75.553V10.3606C75.5546 9.76215 75.7931 9.18867 76.2163 8.76549C76.6395 8.3423 77.2129 8.10383 77.8114 8.10216V8.10531ZM77.8114 6.0365C76.6635 6.0365 75.5627 6.49249 74.751 7.30416C73.9393 8.11583 73.4834 9.21669 73.4834 10.3646V15.5118C72.4246 15.6292 71.4463 16.133 70.7357 16.9267C70.0251 17.7203 69.6323 18.7482 69.6323 19.8135C69.6323 20.8788 70.0251 21.9067 70.7357 22.7003C71.4463 23.494 72.4246 23.9978 73.4834 24.1152V31.5555C73.4834 33.1892 74.1853 35.051 75.2705 36.2991L75.276 36.3062L75.2823 36.3125C76.4036 37.5802 77.9775 38.3986 79.8322 38.6803L79.8731 38.6866H79.9141C80.3149 38.7269 80.7177 38.7437 81.1204 38.737C82.1753 38.7303 83.1914 38.3387 83.9778 37.6356C84.7643 36.9325 85.2668 35.9664 85.3911 34.9189C85.5154 33.8714 85.2528 32.8145 84.6528 31.9469C84.0527 31.0794 83.1564 30.4608 82.1324 30.2075V24.0554C83.1155 23.861 84.0007 23.3314 84.6368 22.5571C85.273 21.7828 85.6208 20.8117 85.6208 19.8096C85.6208 18.8074 85.273 17.8363 84.6368 17.062C84.0007 16.2877 83.1155 15.7582 82.1324 15.5637V10.3606C82.1313 9.21343 81.6749 8.11358 80.8633 7.30277C80.0518 6.49195 78.9515 6.0365 77.8043 6.0365H77.8114Z" fill="#00004F"/>
<path d="M100.623 37.7069C100.038 37.7132 99.464 37.5455 98.9746 37.2251C98.4851 36.9046 98.102 36.4459 97.8739 35.9072C96.3723 36.8427 94.6374 37.3358 92.8683 37.3299C87.2757 37.3299 82.7257 32.7973 82.7257 27.2251C82.728 24.5358 83.7973 21.9574 85.6989 20.0557C87.6006 18.1541 90.179 17.0848 92.8683 17.0825C94.6523 17.0825 96.3575 17.5775 97.9565 18.5564C98.204 18.0629 98.5851 17.649 99.0566 17.3618C99.528 17.0746 100.071 16.9257 100.623 16.9322C102.396 16.9322 103.839 18.3581 103.839 20.1106V34.5277C103.839 36.281 102.396 37.7069 100.623 37.7069ZM92.8683 23.5526C90.8223 23.5526 89.158 25.2004 89.158 27.2251C89.158 29.2294 90.8223 30.8599 92.8683 30.8599C94.8931 30.8599 96.5409 29.2294 96.5409 27.2251C96.5396 26.2515 96.1523 25.3181 95.4638 24.6296C94.7754 23.9411 93.842 23.5538 92.8683 23.5526Z" fill="white"/>
<path d="M100.623 17.9646C100.907 17.9607 101.19 18.0132 101.454 18.1192C101.719 18.2251 101.959 18.3825 102.162 18.582C102.365 18.7816 102.527 19.0194 102.637 19.2818C102.748 19.5441 102.805 19.8258 102.806 20.1105V34.5277C102.805 34.8121 102.747 35.0935 102.636 35.3555C102.526 35.6175 102.364 35.855 102.161 36.0542C101.958 36.2534 101.718 36.4105 101.454 36.5162C101.189 36.622 100.907 36.6744 100.623 36.6705C99.3809 36.6705 98.6278 35.6916 98.6278 34.5246V34.0736C97.0091 35.4665 95.1268 36.2951 92.8684 36.2951C87.8242 36.2951 83.759 32.2291 83.759 27.2227C83.7608 24.8073 84.7212 22.4914 86.4291 20.7835C88.1371 19.0756 90.453 18.1152 92.8684 18.1133C95.1268 18.1133 97.0091 18.979 98.6278 20.2963V20.1082C98.6278 18.9412 99.3809 17.9623 100.623 17.9623V17.9646ZM92.8684 31.8907C95.4282 31.8907 97.5734 29.8203 97.5734 27.2227C97.5734 24.6251 95.4282 22.5177 92.8684 22.5177C90.2715 22.5177 88.1256 24.6251 88.1256 27.2227C88.1256 29.8203 90.2707 31.8907 92.8684 31.8907ZM100.623 15.8958C100.062 15.8889 99.5057 16.001 98.9912 16.2247C98.4767 16.4484 98.0155 16.7785 97.6379 17.1934C96.1607 16.4413 94.526 16.0505 92.8684 16.0532C86.706 16.0532 81.6941 21.0667 81.6941 27.2274C81.6958 28.6927 81.9863 30.1432 82.549 31.4961C83.1116 32.849 83.9353 34.0777 84.9731 35.1121C86.0108 36.1465 87.2422 36.9663 88.597 37.5245C89.9517 38.0827 91.4031 38.3685 92.8684 38.3655C94.477 38.3727 96.0652 38.0052 97.5073 37.2921C97.8846 37.7519 98.3605 38.121 98.8998 38.3719C99.4391 38.6228 100.028 38.7492 100.623 38.7417C101.183 38.7447 101.738 38.6366 102.256 38.4237C102.774 38.2109 103.245 37.8974 103.641 37.5015C104.033 37.1121 104.343 36.649 104.554 36.1389C104.765 35.6289 104.873 35.0821 104.872 34.5301V20.1105C104.873 19.5585 104.765 19.0117 104.554 18.5017C104.343 17.9916 104.033 17.5285 103.641 17.1391C103.245 16.7426 102.775 16.4286 102.257 16.2152C101.738 16.0018 101.183 15.8932 100.623 15.8958V15.8958ZM92.8684 29.8243C91.3921 29.8243 90.1928 28.6565 90.1928 27.2219C90.1928 25.7669 91.3937 24.5826 92.8684 24.5826C94.299 24.5826 95.5077 25.7913 95.5077 27.2219C95.5077 28.6526 94.3273 29.8243 92.8684 29.8243Z" fill="#00004F"/>
<path d="M114.174 37.8193C112.297 37.8193 110.769 36.3092 110.769 34.4529V19.9224C110.769 18.0865 112.297 16.5929 114.174 16.5929C115.057 16.5942 115.903 16.9454 116.527 17.5695C117.151 18.1937 117.502 19.0398 117.503 19.9224V34.4529C117.503 36.3092 116.009 37.8193 114.174 37.8193ZM114.174 15.7226C112.297 15.7226 110.769 14.2275 110.769 12.3939V12.2051C110.769 10.3165 112.264 8.83862 114.174 8.83862C116.009 8.83862 117.503 10.3487 117.503 12.2051V12.3939C117.503 14.1983 115.979 15.7226 114.174 15.7226Z" fill="white"/>
<path d="M114.174 9.87196C114.478 9.87422 114.779 9.93641 115.059 10.055C115.339 10.1735 115.593 10.3461 115.806 10.5629C116.019 10.7797 116.188 11.0364 116.302 11.3183C116.416 11.6002 116.473 11.9019 116.47 12.206V12.394C116.461 13.0002 116.217 13.5791 115.788 14.0078C115.359 14.4365 114.78 14.6813 114.174 14.6903C112.856 14.6903 111.802 13.6358 111.802 12.394V12.206C111.802 10.8879 112.856 9.87196 114.174 9.87196V9.87196ZM114.174 17.6263C114.782 17.6287 115.365 17.8715 115.795 18.3016C116.225 18.7316 116.468 19.3143 116.47 19.9225V34.453C116.47 35.7325 115.416 36.7862 114.174 36.7862C113.55 36.791 112.95 36.5479 112.505 36.1104C112.061 35.6729 111.808 35.0768 111.802 34.453V19.9225C111.802 18.6422 112.856 17.6263 114.174 17.6263V17.6263ZM114.174 7.80551C113.008 7.79818 111.885 8.2505 111.049 9.06458C110.631 9.4727 110.299 9.96092 110.074 10.5001C109.848 11.0393 109.734 11.6184 109.737 12.2028V12.3909C109.74 13.1549 109.944 13.9047 110.328 14.5648C110.713 15.225 111.264 15.7723 111.928 16.1516C111.613 16.3332 111.322 16.5531 111.062 16.8063C110.642 17.2088 110.309 17.6922 110.082 18.2273C109.855 18.7624 109.739 19.338 109.741 19.9193V34.453C109.741 36.879 111.731 38.8526 114.178 38.8526C114.753 38.8522 115.321 38.737 115.851 38.5136C116.38 38.2902 116.859 37.9632 117.26 37.5518C118.081 36.7293 118.541 35.6147 118.54 34.453V19.9225C118.54 19.1597 118.339 18.4104 117.959 17.7492C117.579 17.0879 117.032 16.5379 116.373 16.1539C116.693 15.9628 116.989 15.7325 117.253 15.4685C117.66 15.0666 117.983 14.5879 118.204 14.0602C118.425 13.5325 118.539 12.9662 118.54 12.394V12.206C118.54 9.77989 116.583 7.80551 114.178 7.80551H114.174Z" fill="#00004F"/>
<path d="M133.899 37.7438C133.466 37.7485 133.036 37.6666 132.634 37.5029C132.233 37.3392 131.868 37.097 131.561 36.7905C131.255 36.484 131.012 36.1193 130.849 35.7179C130.685 35.3165 130.603 34.8864 130.607 34.4529V27.3383C130.607 25.2506 129.129 23.5524 127.312 23.5524C124.828 23.5524 123.903 26.313 123.903 28.0528V34.4529C123.903 35.3259 123.556 36.1631 122.939 36.7804C122.321 37.3977 121.484 37.7445 120.611 37.7445C119.738 37.7445 118.901 37.3977 118.284 36.7804C117.666 36.1631 117.32 35.3259 117.32 34.4529V20.0727C117.321 19.2 117.668 18.3634 118.285 17.7463C118.902 17.1292 119.739 16.782 120.611 16.781C121.087 16.7817 121.557 16.8872 121.987 17.0902C122.417 17.2931 122.798 17.5884 123.101 17.9551C124.409 17.3026 125.851 16.9652 127.312 16.9699C132.742 16.9699 137.153 21.6206 137.153 27.3383V34.4529C137.153 36.2675 135.693 37.7438 133.899 37.7438Z" fill="white"/>
<path d="M120.611 17.8143C121.08 17.8167 121.537 17.9672 121.915 18.2445C122.294 18.5218 122.575 18.9116 122.719 19.3583C124.086 18.4721 125.681 18.0014 127.311 18.0032C132.167 18.0032 136.12 22.1817 136.12 27.3392V34.4538C136.12 35.0477 135.884 35.6174 135.464 36.0374C135.044 36.4574 134.474 36.6933 133.88 36.6933C133.286 36.6933 132.717 36.4574 132.297 36.0374C131.877 35.6174 131.641 35.0477 131.641 34.4538V27.3384C131.641 24.6629 129.683 22.5201 127.313 22.5201C124.377 22.5201 122.871 25.4561 122.871 28.0529V34.453C122.86 35.0448 122.617 35.6086 122.195 36.0232C121.772 36.4378 121.204 36.6701 120.612 36.6701C120.02 36.6701 119.452 36.4378 119.03 36.0232C118.607 35.6086 118.365 35.0448 118.353 34.453V20.0728C118.355 19.4742 118.594 18.9008 119.017 18.4776C119.441 18.0544 120.014 17.816 120.613 17.8143H120.611ZM120.613 15.7487C119.465 15.7487 118.364 16.2046 117.552 17.0163C116.741 17.828 116.285 18.9288 116.285 20.0767V34.453C116.33 35.5696 116.805 36.6255 117.611 37.3996C118.417 38.1737 119.492 38.606 120.609 38.606C121.727 38.606 122.801 38.1737 123.607 37.3996C124.413 36.6255 124.889 35.5696 124.934 34.453V28.0529C124.934 27.1181 125.212 26.1643 125.678 25.4994C126.32 24.5858 127.065 24.5858 127.309 24.5858C127.868 24.5858 128.411 24.8431 128.83 25.3113C129.32 25.8716 129.585 26.594 129.573 27.3384V34.453C129.571 35.0217 129.681 35.5853 129.898 36.1111C130.115 36.6369 130.433 37.1146 130.836 37.5166C131.238 37.9186 131.716 38.237 132.242 38.4533C132.768 38.6697 133.332 38.7797 133.901 38.7771C136.261 38.7771 138.187 36.8373 138.187 34.453V27.3384C138.187 21.0517 133.308 15.9367 127.313 15.9367C125.943 15.9334 124.587 16.2008 123.321 16.7237C122.559 16.095 121.601 15.7511 120.613 15.751V15.7487Z" fill="#00004F"/>
<path d="M146.359 37.9296C140.87 37.9296 136.405 33.2277 136.405 27.4478V20.2609C136.405 18.4462 137.813 16.97 139.545 16.97C141.355 16.97 142.95 18.5076 142.95 20.2609V27.451C142.95 29.6252 144.782 31.3116 146.359 31.3116C148.292 31.3116 149.806 29.6158 149.806 27.451V20.5623C149.806 19.6746 150.208 18.831 150.939 18.1803C151.581 17.6105 152.416 17.2706 153.172 17.2706C154.925 17.2706 156.351 18.7476 156.351 20.5623V27.451C156.351 33.2309 151.868 37.9296 146.359 37.9296Z" fill="white"/>
<path d="M139.545 18.0023C140.75 18.0023 141.917 19.019 141.917 20.2608V27.4508C141.917 30.161 144.175 32.3447 146.359 32.3447C148.918 32.3447 150.838 30.161 150.838 27.4508V20.5622C150.838 19.2826 152.156 18.3037 153.172 18.3037C154.339 18.3037 155.318 19.2826 155.318 20.5622V27.4508C155.318 32.6445 151.29 36.8994 146.359 36.8994C141.465 36.8994 137.438 32.6453 137.438 27.4508V20.2608C137.438 19.019 138.382 18.0023 139.545 18.0023V18.0023ZM139.545 15.9366C137.244 15.9366 135.375 17.8764 135.375 20.2647V27.4548C135.361 30.4611 136.503 33.3576 138.565 35.5459C140.651 37.7493 143.42 38.969 146.362 38.969C152.441 38.969 157.387 33.8036 157.387 27.4548V20.5622C157.394 19.428 156.958 18.3359 156.172 17.5184C155.785 17.113 155.32 16.7905 154.805 16.5705C154.29 16.3504 153.736 16.2373 153.176 16.238C152.159 16.238 151.095 16.6638 150.257 17.4074C149.302 18.2541 148.776 19.3747 148.776 20.5622V27.4508C148.776 29.0632 147.738 30.279 146.362 30.279C144.987 30.279 143.986 28.5895 143.986 27.4508V20.2608C143.979 19.6742 143.852 19.0953 143.612 18.5601C143.371 18.0249 143.024 17.545 142.59 17.1501C141.763 16.3812 140.678 15.9485 139.549 15.9366H139.545Z" fill="#00004F"/>
</g>
<defs>
<clipPath id="clip0_35_1387">
<rect width="157.384" height="45" fill="white"/>
</clipPath>
</defs>
</svg>
